<?xml version="1.0" encoding="utf-8"?>
<!-- Generator: Adobe Illustrator 16.0.0, SVG Export Plug-In . SVG Version: 6.00 Build 0)  -->
<!DOCTYPE svg PUBLIC "-//W3C//DTD SVG 1.1//EN" "http://www.w3.org/Graphics/SVG/1.1/DTD/svg11.dtd">
<svg version="1.1" id="Layer_1" xmlns="http://www.w3.org/2000/svg" xmlns:xlink="http://www.w3.org/1999/xlink" x="0px" y="0px"
	 width="20px" height="19.686px" viewBox="0 0 20 19.686" enable-background="new 0 0 20 19.686" xml:space="preserve">
<g id="bayI9F_1_">
	<g>
		<path fill-rule="evenodd" clip-rule="evenodd" fill="#0F223F" d="M0,19.631C0,13.685,0,7.762,0,1.806c0.166,0,0.337,0,0.509,0
			c3.805,0,7.609-0.004,11.414,0.007c0.343,0.001,0.598-0.078,0.834-0.338c0.394-0.434,0.825-0.833,1.241-1.246
			c0.112-0.112,0.215-0.226,0.398-0.224c0.728,0.006,1.456,0.003,2.277,0.003c-0.336,0.334-0.608,0.614-0.89,0.885
			c-0.514,0.493-1.036,0.977-1.548,1.472c-0.399,0.386-0.792,0.777-1.178,1.177c-0.093,0.096-0.2,0.231-0.204,0.352
			c-0.019,0.742-0.009,1.484-0.009,2.294c0.126-0.101,0.202-0.151,0.267-0.214c1.034-1.003,2.07-2.006,3.1-3.014
			c0.634-0.621,1.256-1.255,1.891-1.876c0.327-0.32,0.677-0.618,1.007-0.936c0.249-0.239,0.531-0.109,0.852-0.131
			c0.006,0.211,0.033,0.399,0.01,0.58c-0.018,0.13-0.073,0.28-0.163,0.37c-1.061,1.069-2.126,2.134-3.199,3.19
			c-0.915,0.899-1.841,1.786-2.761,2.681c-0.042,0.041-0.07,0.098-0.146,0.204c0.243,0,0.43,0,0.616,0
			c0.523,0,1.047-0.007,1.569,0.004c0.22,0.004,0.388-0.053,0.55-0.212c1.039-1.021,2.087-2.033,3.133-3.048
			c0.111-0.108,0.224-0.218,0.407-0.396c0,0.476,0.004,0.863,0,1.251c-0.004,0.364,0.079,0.767-0.051,1.08
			C19.798,6.034,19.455,6.26,19.2,6.52c-0.244,0.249-0.49,0.496-0.743,0.736c-0.137,0.13-0.203,0.276-0.188,0.464
			c0.008,0.11,0.001,0.223,0.001,0.333c0,3.678,0,7.356,0,11.034c0,0.173,0,0.347,0,0.487c-0.039,0.042-0.05,0.055-0.062,0.065
			c-0.012,0.01-0.024,0.023-0.037,0.025c-0.062,0.009-0.126,0.021-0.188,0.021c-5.929,0-11.858-0.001-17.787-0.004
			C0.151,19.682,0.107,19.659,0,19.631z M16.731,8.903c-0.524,0.521-0.976,0.965-1.42,1.414c-0.172,0.175-0.366,0.273-0.606,0.341
			c-1.064,0.294-2.121,0.613-3.181,0.926c-1.468,0.434-2.935,0.869-4.403,1.299c-0.098,0.029-0.206,0.021-0.326,0.033
			c0.007-0.083,0.004-0.129,0.017-0.17c0.367-1.208,0.736-2.416,1.105-3.623c0.356-1.162,0.723-2.32,1.065-3.486
			C9.125,5.155,9.33,4.735,9.721,4.398c0.355-0.308,0.671-0.662,1.01-1.002c-0.061-0.038-0.084-0.065-0.109-0.067
			c-0.095-0.008-0.19-0.009-0.285-0.009c-2.9,0.006-5.801,0.012-8.702,0.019c-0.014,0-0.029,0.011-0.041,0.02
			C1.581,3.368,1.572,3.382,1.517,3.44c0,0.122,0,0.294,0,0.465c0,2.965,0,5.93,0,8.894c0,1.617-0.002,3.234,0.003,4.852
			c0,0.166-0.058,0.35,0.076,0.495c0.805,0.074,14.757,0.043,15.136-0.04C16.731,15.075,16.731,12.039,16.731,8.903z M10.484,11.037
			c0.085-0.018,0.179-0.025,0.266-0.057c0.803-0.285,1.594-0.61,2.41-0.851c0.611-0.181,1.089-0.46,1.347-1.064
			c0.065-0.151,0.225-0.263,0.207-0.498c-1.121-0.036-2.238,0.017-3.388-0.031c0-0.424,0-0.801,0-1.179
			c0-0.364,0.01-0.729-0.003-1.093c-0.013-0.368,0.062-0.744-0.068-1.154c-0.412,0.244-0.794,0.46-1.164,0.696
			C10.007,5.859,9.948,5.975,9.91,6.073C9.536,7.062,9.167,8.053,8.801,9.044c-0.1,0.268-0.073,0.354,0.201,0.486
			c0.32,0.154,0.602,0.354,0.825,0.626C10.046,10.423,10.241,10.709,10.484,11.037z"/>
	</g>
</g>
</svg>
